<?xml version="1.0" encoding="UTF-8" standalone="no" ?>
<!DOCTYPE svg PUBLIC "-//W3C//DTD SVG 1.1//EN" "http://www.w3.org/Graphics/SVG/1.1/DTD/svg11.dtd">
<svg xmlns="http://www.w3.org/2000/svg" xmlns:xlink="http://www.w3.org/1999/xlink" version="1.1" width="733.5069531249999" height="291.91087999999996" xml:space="preserve">
<desc>Created with Fabric.js 1.6.0-rc.1</desc>
<defs></defs>
  <g transform="translate(10.5 36.72)">
   <text font-family="ADAMCG PRO" font-size="40" font-weight="normal" style="stroke: none; stroke-width: 1; stroke-dasharray: none; stroke-linecap: butt; stroke-linejoin: miter; stroke-miterlimit: 10; fill: #000000; fill-rule: nonzero; opacity: 1;" ><tspan x="0" y="8.98" fill="#000000"></tspan></text>
 </g>
  <g transform="translate(469.81 221.74) scale(2.34 2.34)">
   <text font-family="Arial" font-size="40" font-weight="bold" style="stroke: none; stroke-width: 1; stroke-dasharray: none; stroke-linecap: butt; stroke-linejoin: miter; stroke-miterlimit: 10; fill: #000000; fill-rule: nonzero; opacity: 1;" ><tspan x="-108.92" y="8.98" style="stroke: none; stroke-width: 0; stroke-dasharray: none; stroke-linecap: butt; stroke-linejoin: miter; stroke-miterlimit: 4; fill: #000000; fill-rule: ; opacity: 1;">P</tspan><tspan x="-82.24" y="8.98" style="stroke: none; stroke-width: 0; stroke-dasharray: none; stroke-linecap: butt; stroke-linejoin: miter; stroke-miterlimit: 4; fill: #000000; fill-rule: ; opacity: 1;">A</tspan><tspan x="-55.56" y="8.98" style="stroke: none; stroke-width: 0; stroke-dasharray: none; stroke-linecap: butt; stroke-linejoin: miter; stroke-miterlimit: 4; fill: #000000; fill-rule: ; opacity: 1;">L</tspan><tspan x="-33.31" y="8.98" style="stroke: none; stroke-width: 0; stroke-dasharray: none; stroke-linecap: butt; stroke-linejoin: miter; stroke-miterlimit: 4; fill: #000000; fill-rule: ; opacity: 1;">E</tspan><tspan x="-6.63" y="8.98" style="stroke: none; stroke-width: 0; stroke-dasharray: none; stroke-linecap: butt; stroke-linejoin: miter; stroke-miterlimit: 4; fill: #000000; fill-rule: ; opacity: 1;">T</tspan><tspan x="17.8" y="8.98" style="stroke: none; stroke-width: 0; stroke-dasharray: none; stroke-linecap: butt; stroke-linejoin: miter; stroke-miterlimit: 4; fill: #000000; fill-rule: ; opacity: 1;">T</tspan><tspan x="42.24" y="8.98" style="stroke: none; stroke-width: 0; stroke-dasharray: none; stroke-linecap: butt; stroke-linejoin: miter; stroke-miterlimit: 4; fill: #000000; fill-rule: ; opacity: 1;">E</tspan><tspan x="68.92" y="8.98" style="stroke: none; stroke-width: 0; stroke-dasharray: none; stroke-linecap: butt; stroke-linejoin: miter; stroke-miterlimit: 4; fill: #000000; fill-rule: ; opacity: 1;">-</tspan><tspan x="82.24" y="8.98" style="stroke: none; stroke-width: 0; stroke-dasharray: none; stroke-linecap: butt; stroke-linejoin: miter; stroke-miterlimit: 4; fill: #000000; fill-rule: ; opacity: 1;">X</tspan></text>
 </g>
<g style="stroke: none; stroke-width: 1; stroke-dasharray: none; stroke-linecap: butt; stroke-linejoin: miter; stroke-miterlimit: 10; fill: none; fill-rule: nonzero; opacity: 1;" transform="translate(31 114.60000000000001) scale(1.62 1.62)" >
  <path d="M 174.261 65.076 c -1.345 0 -4.814 -0.605 -1.482 -4.383 v 0.066 c 1.667 -1.474 2.29 -3.466 2.29 -5.705 c 0 -4.504 -3.689 -8.139 -8.192 -8.139 c -4.505 0 -8.173 3.661 -8.173 8.164 c 0 2.319 0.962 3.7 2.516 5.186 c 0.004 0.005 2.396 3.145 -0.984 4.81 h -5.565 c -3.081 0 -6.884 2.923 -6.884 6.005 v 35.651 h 38.323 V 65.076 h -11.849 z m 61.327 47.223 c -2.319 0 -4.319 0.973 -5.805 2.526 c -0.013 0.009 -3.686 2.335 -5.352 -0.843 v -7.251 h -38.323 v 36.657 h 10.095 l -0.184 -0.533 c 3.957 -1.789 1.387 -5.903 1.374 -5.922 c -1.552 -1.484 -2.524 -3.674 -2.524 -5.994 c 0 -4.503 3.65 -8.207 8.155 -8.207 c 4.504 0 8.464 3.627 8.464 8.131 c 0 2.238 -0.387 4.253 -2.053 5.728 v -0.007 c -3.332 4.977 2.053 6.275 2.053 6.275 l -0.521 0.529 h 8.801 c 3.08 0 4.664 -4.128 4.664 -7.21 v -8.511 c 0 -1.377 1.964 -4.273 5.553 -0.941 h -0.067 c 1.474 1.666 3.467 2.123 5.704 2.123 c 4.505 0 8.139 -3.771 8.139 -8.273 c -0.001 -4.507 -3.669 -8.277 -8.173 -8.277 z" style="stroke: none; stroke-width: 1; stroke-dasharray: none; stroke-linecap: butt; stroke-linejoin: miter; stroke-miterlimit: 10; fill: #621bb3; fill-rule: nonzero; opacity: 1;" transform=" matrix(0.99999998958062 0 0 0.99999998958062 -147.7859984601615 -46.914999511174784) " stroke-linecap="round" />
  <path d="M 174.817 106.732 c -0.893 0 -5.37 -2.428 -2.038 -6.855 v -0.081 c 1.667 -1.474 2.29 -3.539 2.29 -5.776 c 0 -4.505 -3.689 -8.177 -8.192 -8.177 c -4.505 0 -8.173 3.642 -8.173 8.146 c 0 2.319 0.962 4.993 2.516 6.477 c 0.004 0.008 2.541 4.602 -1.306 6.267 h -12.128 v 10.513 l 0.248 -0.072 c 1.785 3.955 5.793 1.387 5.814 1.373 a 8.236 8.236 0 0 1 5.939 -2.525 c 4.505 0 8.182 3.651 8.182 8.156 c 0 4.504 -3.641 8.199 -8.145 8.199 c -2.237 0 -4.258 -0.65 -5.73 -2.316 h 0.002 c -4.975 -3.332 -6.064 2.316 -6.064 2.316 l -0.246 -0.129 v 3.933 c 0 3.082 3.803 7.21 6.884 7.21 h 31.439 v -36.657 h -11.292 z" style="stroke: none; stroke-width: 1; stroke-dasharray: none; stroke-linecap: butt; stroke-linejoin: miter; stroke-miterlimit: 10; fill: #ffb700; fill-rule: nonzero; opacity: 1;" transform=" matrix(0.99999998958062 0 0 0.99999998958062 -147.7859984601615 -46.914999511174784) " stroke-linecap="round" />
  <path d="M 218.713 92.269 a 8.225 8.225 0 0 1 -5.936 2.526 c -4.504 0 -8.178 -3.652 -8.178 -8.155 c 0 -4.505 3.641 -7.71 8.146 -7.71 c 2.236 0 4.26 1.143 5.734 2.809 h 0.13 c 4.16 3.333 5.821 -1.733 5.821 -2.885 v -7.772 c 0 -3.082 -1.584 -6.005 -4.664 -6.005 h -33.659 v 41.656 h 38.323 V 93.466 c -1.664 -3.69 -5.686 -1.217 -5.717 -1.197 z" style="stroke: none; stroke-width: 1; stroke-dasharray: none; stroke-linecap: butt; stroke-linejoin: miter; stroke-miterlimit: 10; fill: #ff3e20; fill-rule: nonzero; opacity: 1;" transform=" matrix(0.99999998958062 0 0 0.99999998958062 -147.7859984601615 -46.914999511174784) " stroke-linecap="round" />
  <circle cx="168.292" cy="75.462" r="7.102" style="stroke: none; stroke-width: 1; stroke-dasharray: none; stroke-linecap: butt; stroke-linejoin: miter; stroke-miterlimit: 10; fill: #f5f5f5; fill-rule: nonzero; opacity: 0;" transform="  matrix(0.99999998958062 0 0 0.99999998958062 -147.7859984601615 -46.914999511174784) "/>
  <circle cx="168.674" cy="75.244" r="2.494" style="stroke: none; stroke-width: 1; stroke-dasharray: none; stroke-linecap: butt; stroke-linejoin: miter; stroke-miterlimit: 10; fill: #ffffff; fill-rule: nonzero; opacity: 0;" transform="  matrix(0.99999998958062 0 0 0.99999998958062 -147.7859984601615 -46.914999511174784) "/>
  <circle cx="200.251" cy="75.461" r="7.101" style="stroke: none; stroke-width: 1; stroke-dasharray: none; stroke-linecap: butt; stroke-linejoin: miter; stroke-miterlimit: 10; fill: #f5f5f5; fill-rule: nonzero; opacity: 0;" transform="  matrix(0.99999998958062 0 0 0.99999998958062 -147.7859984601615 -46.914999511174784) "/>
  <circle cx="200.63299999999998" cy="75.243" r="2.493" style="stroke: none; stroke-width: 1; stroke-dasharray: none; stroke-linecap: butt; stroke-linejoin: miter; stroke-miterlimit: 10; fill: #ffffff; fill-rule: nonzero; opacity: 0;" transform="  matrix(0.99999998958062 0 0 0.99999998958062 -147.7859984601615 -46.914999511174784) "/>
  <circle cx="212.931" cy="115.021" r="7.101" style="stroke: none; stroke-width: 1; stroke-dasharray: none; stroke-linecap: butt; stroke-linejoin: miter; stroke-miterlimit: 10; fill: #f5f5f5; fill-rule: nonzero; opacity: 0;" transform="  matrix(0.99999998958062 0 0 0.99999998958062 -147.7859984601615 -46.914999511174784) "/>
  <circle cx="213.314" cy="114.804" r="2.494" style="stroke: none; stroke-width: 1; stroke-dasharray: none; stroke-linecap: butt; stroke-linejoin: miter; stroke-miterlimit: 10; fill: #ffffff; fill-rule: nonzero; opacity: 0;" transform="  matrix(0.99999998958062 0 0 0.99999998958062 -147.7859984601615 -46.914999511174784) "/>
  <circle cx="174.891" cy="115.521" r="7.101" style="stroke: none; stroke-width: 1; stroke-dasharray: none; stroke-linecap: butt; stroke-linejoin: miter; stroke-miterlimit: 10; fill: #f5f5f5; fill-rule: nonzero; opacity: 0;" transform="  matrix(0.99999998958062 0 0 0.99999998958062 -147.7859984601615 -46.914999511174784) "/>
  <circle cx="175.273" cy="115.31299999999999" r="2.493" style="stroke: none; stroke-width: 1; stroke-dasharray: none; stroke-linecap: butt; stroke-linejoin: miter; stroke-miterlimit: 10; fill: #ffffff; fill-rule: nonzero; opacity: 0;" transform="  matrix(0.99999998958062 0 0 0.99999998958062 -147.7859984601615 -46.914999511174784) "/>
  <path d="M 160.245 75.535 c 0 -2.057 0.785 -3.925 2.063 -5.339 a 7.944 7.944 0 0 0 -2.634 5.91 a 7.975 7.975 0 0 0 7.976 7.973 c 2.347 0 4.45 -1.02 5.909 -2.633 a 7.93 7.93 0 0 1 -5.34 2.063 a 7.974 7.974 0 0 1 -7.974 -7.974 z m 31.953 0 a 7.93 7.93 0 0 1 2.064 -5.339 a 7.94 7.94 0 0 0 -2.634 5.91 a 7.973 7.973 0 0 0 7.974 7.973 a 7.947 7.947 0 0 0 5.911 -2.633 a 7.937 7.937 0 0 1 -5.342 2.063 a 7.974 7.974 0 0 1 -7.973 -7.974 z m 12.172 40.069 c 0 -2.057 0.786 -3.928 2.065 -5.341 a 7.943 7.943 0 0 0 -2.636 5.909 a 7.978 7.978 0 0 0 7.976 7.977 a 7.941 7.941 0 0 0 5.909 -2.635 a 7.933 7.933 0 0 1 -5.34 2.064 a 7.975 7.975 0 0 1 -7.974 -7.974 z m -29.211 8.48 a 7.933 7.933 0 0 1 -5.34 -2.064 a 7.952 7.952 0 0 0 5.91 2.635 a 7.975 7.975 0 0 0 7.974 -7.974 a 7.94 7.94 0 0 0 -2.634 -5.911 a 7.937 7.937 0 0 1 2.065 5.342 a 7.974 7.974 0 0 1 -7.975 7.972 z" style="stroke: none; stroke-width: 1; stroke-dasharray: none; stroke-linecap: butt; stroke-linejoin: miter; stroke-miterlimit: 10; fill: #f5f5f5; fill-rule: nonzero; opacity: 0;" transform=" matrix(0.99999998958062 0 0 0.99999998958062 -147.7859984601615 -46.914999511174784) " stroke-linecap="round" />
</g>
</svg>